<mxfile host="app.diagrams.net" modified="2020-11-06T14:47:55.295Z" agent="5.0 (X11)" etag="eqtxKw09CohJgWITrzLQ" version="13.9.2" type="github">
  <diagram id="OshGDxB1pJxwN1cqQU85" name="Page-1">
    <mxGraphModel dx="1048" dy="624" grid="1" gridSize="10" guides="1" tooltips="1" connect="1" arrows="1" fold="1" page="1" pageScale="1" pageWidth="850" pageHeight="1100" math="0" shadow="0">
      <root>
        <mxCell id="0" />
        <mxCell id="1" parent="0" />
        <mxCell id="sWD1jRdrbjlsR7P1AXlo-12" value="" style="rounded=1;whiteSpace=wrap;html=1;dashed=1;" parent="1" vertex="1">
          <mxGeometry x="460" y="490" width="390" height="590" as="geometry" />
        </mxCell>
        <mxCell id="cuUy9ubZjwIPMU2Vf9Ge-2" style="edgeStyle=orthogonalEdgeStyle;rounded=0;orthogonalLoop=1;jettySize=auto;html=1;entryX=0.478;entryY=0;entryDx=0;entryDy=0;entryPerimeter=0;" parent="1" source="cuUy9ubZjwIPMU2Vf9Ge-1" target="cuUy9ubZjwIPMU2Vf9Ge-3" edge="1">
          <mxGeometry relative="1" as="geometry">
            <mxPoint x="260" y="500" as="targetPoint" />
          </mxGeometry>
        </mxCell>
        <mxCell id="cuUy9ubZjwIPMU2Vf9Ge-1" value="&lt;pre&gt;&lt;br&gt;&lt;/pre&gt;&lt;pre&gt;&lt;font style=&quot;font-size: 15px&quot; color=&quot;#ff3333&quot;&gt;SETTINGS_DATABASE_FOR_ICAT=postgresql&lt;/font&gt;&lt;/pre&gt;&lt;pre&gt;&lt;font style=&quot;font-size: 15px&quot; color=&quot;#ff3333&quot;&gt;SETTINGS_OUTPUT_DIR=/home/ubuntu/output&lt;/font&gt;&lt;/pre&gt;&lt;pre&gt;&lt;font style=&quot;font-size: 15px&quot; color=&quot;#ff3333&quot;&gt;SETTINGS_PLATFORM=ubuntu16&lt;/font&gt;&lt;/pre&gt;" style="rounded=0;whiteSpace=wrap;html=1;align=left;" parent="1" vertex="1">
          <mxGeometry x="40" y="230" width="390" height="210" as="geometry" />
        </mxCell>
        <mxCell id="cuUy9ubZjwIPMU2Vf9Ge-3" value="&lt;p style=&quot;line-height: 120%&quot;&gt;&lt;/p&gt;&lt;pre style=&quot;font-size: 14px&quot;&gt;&lt;font style=&quot;font-size: 14px&quot;&gt;version: &quot;3&quot;&lt;/font&gt;&lt;/pre&gt;&lt;pre style=&quot;font-size: 14px&quot;&gt;&lt;font style=&quot;font-size: 14px&quot;&gt;services:&lt;/font&gt;&lt;/pre&gt;&lt;pre style=&quot;font-size: 14px&quot;&gt;&lt;font style=&quot;font-size: 14px&quot;&gt;  svc1:&lt;/font&gt;&lt;/pre&gt;&lt;pre style=&quot;font-size: 14px&quot;&gt;&lt;pre&gt;    volumes:&lt;/pre&gt;&lt;pre&gt;      - &lt;font color=&quot;#ff3333&quot;&gt;${SETTINGS_OUTPUT_DIR}&lt;/font&gt;:/output:rw&lt;/pre&gt;&lt;/pre&gt;&lt;pre style=&quot;font-size: 14px&quot;&gt;&lt;font style=&quot;font-size: 14px&quot;&gt;    env_file: &lt;i&gt;&lt;b&gt;jenkins.env&lt;/b&gt;&lt;/i&gt;&lt;/font&gt;&lt;/pre&gt;&lt;pre style=&quot;font-size: 14px&quot;&gt;&lt;font style=&quot;font-size: 14px&quot;&gt;    build:&lt;/font&gt;&lt;/pre&gt;&lt;pre style=&quot;font-size: 14px&quot;&gt;&lt;font style=&quot;font-size: 14px&quot;&gt;      dockerfile: &lt;i&gt;&lt;b&gt;Dockerfile&lt;/b&gt;&lt;/i&gt;.&lt;font color=&quot;#ff3333&quot;&gt;$SETTINGS_PLATFORM&lt;/font&gt;&lt;/font&gt;&lt;/pre&gt;&lt;pre style=&quot;font-size: 14px&quot;&gt;&lt;font style=&quot;font-size: 14px&quot;&gt;      args:&lt;/font&gt;&lt;/pre&gt;&lt;pre style=&quot;font-size: 14px&quot;&gt;&lt;font style=&quot;font-size: 14px&quot;&gt;        &lt;u&gt;icat_db&lt;/u&gt;: &lt;font color=&quot;#ff3333&quot;&gt;$SETTINGS_DATABASE_FOR_ICAT&lt;/font&gt;&lt;/font&gt;&lt;/pre&gt;&lt;pre style=&quot;font-size: 14px&quot;&gt;&lt;font style=&quot;font-size: 14px&quot;&gt;&lt;font color=&quot;#ff3333&quot;&gt;  &lt;/font&gt;svc2:&lt;/font&gt;&lt;/pre&gt;&lt;pre style=&quot;font-size: 14px&quot;&gt;&lt;font style=&quot;font-size: 14px&quot;&gt;    build:&lt;br&gt;&lt;br&gt;      env_file: &lt;i&gt;&lt;b&gt;jenkins.env&lt;/b&gt;&lt;/i&gt;&lt;br&gt;&lt;/font&gt;&lt;/pre&gt;&lt;pre style=&quot;font-size: 14px&quot;&gt;&lt;font style=&quot;font-size: 14px&quot;&gt;      context: .&lt;/font&gt;&lt;/pre&gt;&lt;pre style=&quot;font-size: 14px&quot;&gt;&lt;span style=&quot;line-height: 100%&quot;&gt;&lt;br&gt;&lt;/span&gt;&lt;/pre&gt;&lt;p&gt;&lt;/p&gt;" style="rounded=0;whiteSpace=wrap;html=1;align=left;" parent="1" vertex="1">
          <mxGeometry x="40" y="540" width="410" height="450" as="geometry" />
        </mxCell>
        <mxCell id="cuUy9ubZjwIPMU2Vf9Ge-6" value="&lt;i&gt;&lt;b&gt;&lt;font style=&quot;font-size: 14px&quot;&gt;docker-compose.yml&lt;/font&gt;&lt;/b&gt;&lt;/i&gt;" style="text;html=1;" parent="1" vertex="1">
          <mxGeometry x="310" y="510" width="140" height="30" as="geometry" />
        </mxCell>
        <mxCell id="TjAN6SG88gfEc_Td4ZsR-1" value="&lt;i&gt;&lt;b&gt;&lt;font style=&quot;font-size: 14px&quot;&gt;.env&lt;/font&gt;&lt;/b&gt;&lt;/i&gt;" style="text;html=1;" parent="1" vertex="1">
          <mxGeometry x="400" y="200" width="30" height="30" as="geometry" />
        </mxCell>
        <mxCell id="sWD1jRdrbjlsR7P1AXlo-5" style="edgeStyle=orthogonalEdgeStyle;rounded=0;orthogonalLoop=1;jettySize=auto;html=1;" parent="1" source="sWD1jRdrbjlsR7P1AXlo-2" target="cuUy9ubZjwIPMU2Vf9Ge-1" edge="1">
          <mxGeometry relative="1" as="geometry">
            <Array as="points">
              <mxPoint x="400" y="180" />
              <mxPoint x="235" y="180" />
            </Array>
          </mxGeometry>
        </mxCell>
        <mxCell id="sWD1jRdrbjlsR7P1AXlo-9" style="edgeStyle=orthogonalEdgeStyle;rounded=0;orthogonalLoop=1;jettySize=auto;html=1;entryX=0.385;entryY=0.005;entryDx=0;entryDy=0;entryPerimeter=0;" parent="1" source="sWD1jRdrbjlsR7P1AXlo-2" target="sWD1jRdrbjlsR7P1AXlo-6" edge="1">
          <mxGeometry relative="1" as="geometry">
            <Array as="points">
              <mxPoint x="400" y="180" />
              <mxPoint x="600" y="180" />
            </Array>
          </mxGeometry>
        </mxCell>
        <mxCell id="sWD1jRdrbjlsR7P1AXlo-2" value="Jenkins Form&lt;br&gt;-&amp;gt;&lt;font color=&quot;#ff3333&quot;&gt;SETTING_&lt;/font&gt;*&lt;br&gt;-&amp;gt;&lt;font color=&quot;#0000ff&quot;&gt;PARAMETER_&lt;/font&gt;*" style="shape=process;whiteSpace=wrap;html=1;backgroundOutline=1;" parent="1" vertex="1">
          <mxGeometry x="295" y="30" width="210" height="90" as="geometry" />
        </mxCell>
        <mxCell id="R3ii6Am8bJWhFYvw7mAO-3" style="edgeStyle=orthogonalEdgeStyle;rounded=0;orthogonalLoop=1;jettySize=auto;html=1;entryX=0.342;entryY=0;entryDx=0;entryDy=0;entryPerimeter=0;" parent="1" source="sWD1jRdrbjlsR7P1AXlo-6" target="sWD1jRdrbjlsR7P1AXlo-12" edge="1">
          <mxGeometry relative="1" as="geometry" />
        </mxCell>
        <mxCell id="sWD1jRdrbjlsR7P1AXlo-6" value="&lt;pre&gt;&lt;font style=&quot;font-size: 15px&quot; color=&quot;#0000ff&quot;&gt;PARAMETER_XXX&lt;/font&gt;&lt;/pre&gt;&lt;pre&gt;&lt;font style=&quot;font-size: 15px&quot; color=&quot;#0000ff&quot;&gt;PARAMETER_YYY&lt;/font&gt;&lt;/pre&gt;&lt;pre&gt;&lt;font style=&quot;font-size: 15px&quot; color=&quot;#0000ff&quot;&gt;...&lt;/font&gt;&lt;/pre&gt;" style="rounded=0;whiteSpace=wrap;html=1;align=left;" parent="1" vertex="1">
          <mxGeometry x="450" y="240" width="390" height="110" as="geometry" />
        </mxCell>
        <mxCell id="sWD1jRdrbjlsR7P1AXlo-8" value="&lt;i&gt;&lt;b&gt;&lt;font style=&quot;font-size: 14px&quot;&gt;jenkins.env&lt;/font&gt;&lt;/b&gt;&lt;/i&gt;" style="text;html=1;" parent="1" vertex="1">
          <mxGeometry x="750" y="210" width="90" height="30" as="geometry" />
        </mxCell>
        <mxCell id="cuUy9ubZjwIPMU2Vf9Ge-8" value="&lt;p style=&quot;line-height: 120%&quot;&gt;&lt;/p&gt;&lt;pre&gt;&lt;span style=&quot;font-size: 15px&quot;&gt;FROM ubuntu:16.04&lt;/span&gt;&lt;/pre&gt;&lt;pre&gt;&lt;span style=&quot;font-size: 15px&quot;&gt;ARG &lt;u&gt;icat_db&lt;/u&gt;&lt;/span&gt;&lt;/pre&gt;&lt;pre&gt;&lt;span style=&quot;font-size: 15px&quot;&gt;&lt;font color=&quot;#777777&quot;&gt;ENV ICAT_DB=$&lt;u&gt;icat_db&lt;/u&gt;&lt;/font&gt;&lt;/span&gt;&lt;/pre&gt;&lt;pre&gt;&lt;span style=&quot;font-size: 15px&quot;&gt;#...&lt;/span&gt;&lt;/pre&gt;&lt;pre&gt;&lt;span style=&quot;font-size: 15px&quot;&gt;CMD echo &lt;font color=&quot;#3333ff&quot;&gt;$PARAMETER_XXX; #...&lt;/font&gt;&lt;/span&gt;&lt;/pre&gt;&lt;p&gt;&lt;/p&gt;" style="rounded=0;whiteSpace=wrap;html=1;align=left;" parent="1" vertex="1">
          <mxGeometry x="491" y="530" width="299" height="160" as="geometry" />
        </mxCell>
        <mxCell id="sWD1jRdrbjlsR7P1AXlo-10" value="&lt;p style=&quot;line-height: 120%&quot;&gt;&lt;/p&gt;&lt;pre&gt;&lt;span style=&quot;font-size: 15px&quot;&gt;FROM centos:7&lt;/span&gt;&lt;/pre&gt;&lt;pre&gt;&lt;span style=&quot;font-size: 15px&quot;&gt;# ...&lt;font face=&quot;Helvetica&quot;&gt;&lt;span style=&quot;white-space: normal&quot;&gt;&lt;u&gt;&lt;/u&gt;&lt;/span&gt;&lt;/font&gt;&lt;/span&gt;&lt;/pre&gt;&lt;pre&gt;&lt;span style=&quot;font-size: 15px&quot;&gt;COPY script.py /&lt;/span&gt;&lt;/pre&gt;&lt;pre&gt;&lt;span style=&quot;font-size: 15px&quot;&gt;ENTRYPOINT /script.py&lt;/span&gt;&lt;/pre&gt;&lt;p&gt;&lt;/p&gt;" style="rounded=0;whiteSpace=wrap;html=1;align=left;" parent="1" vertex="1">
          <mxGeometry x="490" y="740" width="210" height="150" as="geometry" />
        </mxCell>
        <mxCell id="R3ii6Am8bJWhFYvw7mAO-5" value="&lt;span style=&quot;font-size: 14px&quot;&gt;&lt;b&gt;&lt;i&gt;Dockerfile&lt;font color=&quot;#ff3333&quot;&gt;.ubuntu16&lt;/font&gt;&lt;/i&gt;&lt;/b&gt;&lt;/span&gt;" style="text;html=1;" parent="1" vertex="1">
          <mxGeometry x="585" y="495" width="140" height="30" as="geometry" />
        </mxCell>
        <mxCell id="R3ii6Am8bJWhFYvw7mAO-6" value="&lt;span style=&quot;font-size: 14px&quot;&gt;&lt;b&gt;Dockerfile&lt;/b&gt;&lt;i&gt;&lt;b&gt; &lt;/b&gt;used by svc2&lt;/i&gt;&lt;/span&gt;" style="text;html=1;" parent="1" vertex="1">
          <mxGeometry x="515" y="710" width="140" height="30" as="geometry" />
        </mxCell>
        <mxCell id="R3ii6Am8bJWhFYvw7mAO-9" value="&lt;p style=&quot;line-height: 120%&quot;&gt;&lt;/p&gt;&lt;pre&gt;&lt;span style=&quot;font-size: 15px&quot;&gt;#!/usr/bin/env python&lt;/span&gt;&lt;/pre&gt;&lt;pre&gt;&lt;span style=&quot;font-size: 15px&quot;&gt;import os&lt;/span&gt;&lt;/pre&gt;&lt;pre&gt;&lt;span style=&quot;font-size: 15px&quot;&gt;var_yyy = \&lt;/span&gt;&lt;/pre&gt;&lt;pre&gt;&lt;span style=&quot;font-size: 15px&quot;&gt;os.environ[&#39;&lt;font color=&quot;#3333ff&quot;&gt;PARAMETER_YYY&lt;/font&gt;&#39;]&lt;/span&gt;&lt;/pre&gt;&lt;p&gt;&lt;/p&gt;" style="rounded=0;whiteSpace=wrap;html=1;align=left;" parent="1" vertex="1">
          <mxGeometry x="560" y="930" width="250" height="135" as="geometry" />
        </mxCell>
        <mxCell id="R3ii6Am8bJWhFYvw7mAO-10" value="&lt;span style=&quot;font-size: 14px&quot;&gt;&lt;b&gt;&lt;i&gt;script.py&lt;/i&gt;&lt;/b&gt;&lt;/span&gt;" style="text;html=1;" parent="1" vertex="1">
          <mxGeometry x="690" y="900" width="140" height="30" as="geometry" />
        </mxCell>
      </root>
    </mxGraphModel>
  </diagram>
</mxfile>
